<svg xmlns="http://www.w3.org/2000/svg" xmlns:xlink="http://www.w3.org/1999/xlink" viewBox="0 0 567.05 507.66"><defs><linearGradient id="a" x1="95.21" y1="165.16" x2="95.21" y2="444.2" gradientUnits="userSpaceOnUse"><stop offset="0" stop-color="#1b537b"/><stop offset=".02" stop-color="#1b547d"/><stop offset=".24" stop-color="#216896"/><stop offset=".48" stop-color="#2675a8"/><stop offset=".72" stop-color="#297eb3"/><stop offset="1" stop-color="#2a81b7"/></linearGradient><linearGradient id="b" x1="156.68" y1="507.66" x2="156.68" y2="0" xlink:href="#a"/><linearGradient id="c" x1="2241.85" y1="165.16" x2="2241.85" y2="444.2" gradientTransform="translate(2713.69) rotate(-180) scale(1 -1)" gradientUnits="userSpaceOnUse"><stop offset="0" stop-color="#938338"/><stop offset=".13" stop-color="#9e8e3c"/><stop offset=".4" stop-color="#b09f42"/><stop offset=".68" stop-color="#bbaa46"/><stop offset="1" stop-color="#bfae48"/></linearGradient><linearGradient id="d" x1="2303.32" y1="507.66" x2="2303.32" y2="0" xlink:href="#c"/></defs><polygon points="29.83 165.16 0 354.73 158.56 444.2 190.42 165.16 29.83 165.16" fill="url(#a)"/><path d="M283.53,0v237.72s0-.02-.02-.02v-.02h0s0,.02,0,.02c-.31.37-6.03,7.43-8.46,26.53-2.5,19.63-13.12,87.4-13.12,87.4l-53.71,46.93-1.09,24.53,48.81-15.85.57,5.68-24.46,26.83,8.38,12.58,30.19-3.63.4,58.96-112.45-63.46,31.86-279.03H29.84l10.04-63.85L205.58,32.42,283.53,0Z" fill="url(#b)"/><polygon points="537.22 165.16 567.05 354.73 408.5 444.2 376.63 165.16 537.22 165.16" fill="url(#c)"/><path d="M283.53,0v237.72s0-.02.02-.02v-.02h0s0,.02,0,.02c.31.37,6.03,7.43,8.46,26.53,2.5,19.63,13.12,87.4,13.12,87.4l53.71,46.93,1.09,24.53-48.81-15.85-.57,5.68,24.46,26.83-8.38,12.58-30.19-3.63-.4,58.96,112.45-63.46-31.86-279.03h160.58s-10.04-63.85-10.04-63.85l-165.7-68.9L283.53,0Z" fill="url(#d)"/></svg>
