<?xml version="1.0" encoding="UTF-8"?><svg id="Layer_4" xmlns="http://www.w3.org/2000/svg" viewBox="0 0 1920 1080"><polygon points="486.83 365.94 486.83 470.43 324.93 470.43 324.93 886.55 220.46 886.55 220.46 470.43 58.56 470.43 58.56 365.94 486.83 365.94" fill="#2a81b7" stroke-width="0"/><rect x="545.27" y="782.07" width="371.1" height="104.47" fill="#2a81b7" stroke-width="0"/><rect x="545.27" y="365.94" width="371.1" height="104.49" fill="#2a81b7" stroke-width="0"/><rect x="545.27" y="574" width="324.99" height="104.49" fill="#2a81b7" stroke-width="0"/><path d="M1114.39,816.83c0,38.44-31.26,69.72-69.72,69.72s-69.7-31.28-69.7-69.72,31.26-69.72,69.7-69.72,69.72,31.28,69.72,69.72Z" fill="#bfae48" stroke-width="0"/><path d="M1420.12,365.94v359.63c0,88.75-72.22,160.97-160.97,160.97h-86.69v-104.45h86.69c31.17,0,56.53-25.35,56.53-56.53v-359.63h104.45Z" fill="#bfae48" stroke-width="0"/><path d="M1869.91,701.56c0,38.18-10.97,75.15-31.73,106.95-22.85,34.99-55.51,61.33-94.42,76.12-22.31,8.49-45.77,12.81-69.7,12.81s-47.3-4.31-69.61-12.78c-40.25-15.31-74.81-43.94-97.33-80.61-18.91-30.76-28.91-66.2-28.91-102.49v-29.17h104.43v29.17c0,17.4,4.89,34.3,14.14,48.89,13.24,20.89,34.64,35.72,58.77,40.68,6.1,1.25,12.33,1.88,18.52,1.88,50.42,0,91.45-41.03,91.45-91.45,0-27.23-7.48-48.33-23.54-66.4-16.54-18.6-41.05-33.35-64.78-47.6-6.45-3.88-13.11-7.89-19.45-11.88-21.41-13.47-45.96-30.48-65.75-54.37-26.86-32.47-41.43-73.17-44.52-124.43l-1.88-30.94h104.43l1.77,27.29c2.39,36.8,13.15,58.68,38.33,78.11,15.74,12.12,32.36,22.2,48.44,31.97,31.88,19.36,64.85,39.37,91.73,75.45,26.3,35.29,39.62,76.6,39.62,122.8Z" fill="#bfae48" stroke-width="0"/></svg>