<?xml version="1.0" encoding="UTF-8"?><svg id="Layer_4" xmlns="http://www.w3.org/2000/svg" xmlns:xlink="http://www.w3.org/1999/xlink" viewBox="0 0 1486.37 507.66"><defs><linearGradient id="linear-gradient" x1="95.21" y1="165.16" x2="95.21" y2="444.2" gradientUnits="userSpaceOnUse"><stop offset="0" stop-color="#1b537b"/><stop offset=".02" stop-color="#1b547d"/><stop offset=".24" stop-color="#216896"/><stop offset=".48" stop-color="#2675a8"/><stop offset=".72" stop-color="#297eb3"/><stop offset="1" stop-color="#2a81b7"/></linearGradient><linearGradient id="linear-gradient-2" x1="156.68" y1="507.66" x2="156.68" y2="0" xlink:href="#linear-gradient"/><linearGradient id="linear-gradient-3" x1="2241.85" y1="165.16" x2="2241.85" y2="444.2" gradientTransform="translate(2713.69) rotate(-180) scale(1 -1)" gradientUnits="userSpaceOnUse"><stop offset="0" stop-color="#938338"/><stop offset=".13" stop-color="#9e8e3c"/><stop offset=".4" stop-color="#b09f42"/><stop offset=".68" stop-color="#bbaa46"/><stop offset="1" stop-color="#bfae48"/></linearGradient><linearGradient id="linear-gradient-4" x1="2303.32" y1="507.66" x2="2303.32" y2="0" xlink:href="#linear-gradient-3"/></defs><path d="M654.65,147.54v-31.45h181.66v31.45h-75.1v193.02h-31.45v-193.02h-75.1Z" fill="#2a81b7" stroke="#2a81b7" stroke-miterlimit="10" stroke-width="17.01"/><path d="M880.42,116.09h155.14v31.45h-155.14v-31.45ZM880.42,212.6h133.75v31.45h-133.75v-31.45ZM1035.56,309.11v31.45h-155.14v-31.45h155.14Z" fill="#2a81b7" stroke="#2a81b7" stroke-miterlimit="10" stroke-width="17.01"/><path d="M1103.57,340.57c-13.17,0-23.83-10.67-23.83-23.84s10.67-23.83,23.83-23.83,23.84,10.67,23.84,23.83-10.67,23.84-23.84,23.84Z" fill="#bfae48" stroke="#bfae48" stroke-miterlimit="10" stroke-width="17.01"/><path d="M1237.79,116.09h31.44v158.31c0,36.4-29.76,66.17-66.17,66.17h-31.7v-31.44h31.7c19.05,0,34.73-15.68,34.73-34.73V116.09Z" fill="#bfae48" stroke="#bfae48" stroke-miterlimit="10" stroke-width="17.01"/><path d="M1433.38,226.82c-10.79-12.15-27.23-20.53-40.9-29.14-10.49-6.6-20.52-13.84-28.48-23.46-12.53-15.13-17.55-33.5-18.72-52.8l-.32-5.33h31.44l.31,4.71c1.17,17.98,6.46,31.15,21.07,42.41,22.17,17.08,45.83,24.6,63.39,48.18,11.38,15.27,16.7,32.91,16.7,51.88,0,16.01-4.58,31.55-13.34,44.95-9.54,14.61-23.41,25.82-39.7,32.02-9.36,3.56-19.29,5.37-29.3,5.37s-19.92-1.82-29.28-5.37c-16.99-6.46-31.4-18.38-40.92-33.88-7.99-13-12.15-27.84-12.15-43.09v-5.03h31.43v5.03c0,9.67,2.7,19.06,7.88,27.23,7.39,11.66,19.21,19.87,32.74,22.64,3.39.7,6.85,1.05,10.3,1.05,28.13,0,50.92-22.79,50.92-50.92,0-13.99-3.7-25.92-13.06-36.45Z" fill="#bfae48" stroke="#bfae48" stroke-miterlimit="10" stroke-width="17.01"/><polygon points="29.83 165.16 0 354.73 158.56 444.2 190.42 165.16 29.83 165.16" fill="url(#linear-gradient)" stroke-width="0"/><path d="M283.53,0v237.72s0-.02-.02-.02v-.02h0s0,.02,0,.02c-.31.37-6.03,7.43-8.46,26.53-2.5,19.63-13.12,87.4-13.12,87.4l-53.71,46.93-1.09,24.53,48.81-15.85.57,5.68-24.46,26.83,8.38,12.58,30.19-3.63.4,58.96-112.45-63.46,31.86-279.03H29.84l10.04-63.85L205.58,32.42,283.53,0Z" fill="url(#linear-gradient-2)" stroke-width="0"/><polygon points="537.22 165.16 567.05 354.73 408.5 444.2 376.63 165.16 537.22 165.16" fill="url(#linear-gradient-3)" stroke-width="0"/><path d="M283.53,0v237.72s0-.02.02-.02v-.02h0s0,.02,0,.02c.31.37,6.03,7.43,8.46,26.53,2.5,19.63,13.12,87.4,13.12,87.4l53.71,46.93,1.09,24.53-48.81-15.85-.57,5.68,24.46,26.83-8.38,12.58-30.19-3.63-.4,58.96,112.45-63.46-31.86-279.03h160.58s-10.04-63.85-10.04-63.85l-165.7-68.9L283.53,0Z" fill="url(#linear-gradient-4)" stroke-width="0"/></svg>